<?xml version="1.0" encoding="UTF-8"?>
<svg id="Layer_1" data-name="Layer 1" xmlns="http://www.w3.org/2000/svg" viewBox="0 0 513.12 105.75">
  <defs>
    <style>
      .cls-1 {
        fill: #fff;
      }
    </style>
  </defs>
  <path class="cls-1" d="m513.12.01h-3.64s-317.44.06-317.44.06c1.14.52,2.24,1.15,3.28,1.91,10.71,7.84,12.41,23.25,10.38,36.37s-6.85,26.06-5.56,39.27c.71,7.34,3.96,15.17,10.68,18.22,7.73,3.51,17.4-1.07,21.61-8.43,4.21-7.37,3.91-16.56,1.64-24.73-1.72-6.19-4.51-12.19-4.71-18.61s3.22-13.64,9.5-14.96c7.56-1.59,14.16,6.25,15.29,13.89,1.14,7.64-1.15,15.36-1.13,23.09.02,7.72,3.59,16.59,11.11,18.34,7.83,1.82,15.32-5.49,17.08-13.34,1.76-7.84-.43-15.95-1.88-23.86-1.45-7.91-1.98-16.7,2.52-23.36,6.27-9.28,20.84-10.26,29.87-3.63s12.75,18.77,11.73,29.93c-.54,5.87-2.09,12.31,1.11,17.26.65,1.01,1.5,1.91,2.56,2.46,5.76,3,10.7-5.33,11.59-11.76.89-6.43,3.98-15.08,10.35-13.79,2.98.6,5.02,3.34,6.52,5.99,3.36,5.97,4.67,10.53,5.77,15.22,1.29,5.46,2.83,10.64,6.06,15.23,2.58,3.66,5.71,12.98,14.48,12.66,9.26-.34,11.24-14.72,10.1-24.98-1.06-9.54,6.71-7.81,7.24-17.66.51-9.59-1.18-20.08,4.96-27.47,6.14-7.38,19.6-8.74,24.68-.59,3.94,6.32,1.3,14.45.95,21.89s4.96,16.88,12.07,14.65c6.57-2.06,6.51-11.22,5.62-18.05s2.01-16.39,8.4-14.26c6.29,3,2.96,25.37.33,38.87-1.38,7.08-3.31,15.22,1.17,20.87,5.19,6.54,16.46,4.83,21.81-1.57,5.36-6.4,6.03-15.51,5.09-23.81-.94-8.29-3.25-16.49-2.92-24.83.7-17.42,15.09-32.36,31.74-36.49Z"/>
  <path class="cls-1" d="m3.01.07c3.46,6.33,5.11,13.89,5.16,21.17.09,12.46-3.6,24.59-6.05,36.81-2.46,12.22-3.61,25.33,1.3,36.78,2.12,4.96,5.88,9.8,11.19,10.75,9.83,1.76,16.48-10.44,16.31-20.43-.18-9.99-3.65-20.43.17-29.66.63-1.52,1.5-3.03,2.88-3.93,4.09-2.69,9.66,1.66,10.59,6.46.93,4.8-.88,9.66-1.38,14.53-.5,4.87,1.11,10.79,5.79,12.22,4.79,1.46,9.53-2.82,11.54-7.4,3.21-7.33,2.45-15.72,1.56-23.68-.89-7.96-1.81-16.29,1.15-23.73,2.96-7.44,11.21-13.44,18.83-10.98,4.96,1.6,8.37,6.32,9.95,11.28,6.62,20.85-13.12,45.76-1.1,64.03,5.48,8.33,17.17,11.9,26.37,8.06,12.85-5.36,17.47-21.77,15.44-35.54s-8.84-26.37-12.21-39.88c-1.51-6.05-2.2-12.9,1.16-18.15,3.36-5.26,12.21-7,15.69-1.82,3.32,4.94-.26,11.38-1.3,17.24-.91,5.11.44,10.78,4.25,14.3,3.81,3.52,10.2,4.25,14.24.99,6.28-5.06,3.89-14.91,5.16-22.88,1.24-7.71,7.2-13.69,14.4-16.54H3.01Z"/>
</svg>